#!OML:ASF E:\Steps\Project 1\Capture day 1\Session 2\Subject.ASF
:FULLY-SPECIFIED
:DEGREES
574
root 12.0324 17.9207 7.28072 -150.892 -1.23711 177.615
lowerback -32.6586 -3.32997 -7.96246
upperback -4.75688 -3.11406 -0.447921
thorax 11.7286 -2.4103 2.40719
lowerneck -4.77538 -2.44015 -0.506257
upperneck 3.70025 -3.35872 3.75107
head 2.06252 -1.5627 1.16549
rclavicle 1.66482e-014 -2.38542e-015
rhumerus -43.8758 -13.8737 -77.428
rradius 27.2936
rwrist 0.592832
rhand -8.33457 -48.5506
rfingers 7.12502
rthumb 17.5869 -77.7752
lclavicle 1.66482e-014 -2.38542e-015
lhumerus -28.709 -0.3762 83.7143
lradius 20.6257
lwrist -5.61432
lhand -23.1132 -11.8269
lfingers 7.12502
lthumb 3.33381 18.1268
rfemur -23.7997 5.20247 20.4999
rtibia 11.3823
rfoot -24.4286 -10.5984
rtoes -29.4502
lfemur -21.8103 -3.47294 -23.9385
ltibia 3.97764
lfoot -6.02969 -9.55131
ltoes -25.7009
575
root 12.0324 17.9217 7.27875 -150.866 -1.40921 177.557
lowerback -32.6643 -3.41364 -8.09944
upperback -4.72729 -3.16652 -0.422612
thorax 11.7741 -2.43748 2.48434
lowerneck -4.85109 -2.50069 -0.452856
upperneck 3.46429 -3.43408 3.65307
head 1.9969 -1.60542 1.12174
rclavicle 1.91827e-014 1.90833e-014
rhumerus -43.5189 -14.3139 -77.112
rradius 26.7291
rwrist 0.896642
rhand -8.56425 -48.4606
rfingers 7.12502
rthumb 17.3659 -77.7048
lclavicle 1.91827e-014 1.90833e-014
lhumerus -28.4703 -0.161265 83.795
lradius 20.3285
lwrist -5.81791
lhand -23.1072 -11.8542
lfingers 7.12502
lthumb 3.33955 18.0994
rfemur -23.8017 5.18218 20.4662
rtibia 11.399
rfoot -24.4654 -10.7237
rtoes -28.9392
lfemur -21.8759 -3.29198 -23.9997
ltibia 4.05192
lfoot -5.88504 -9.85032
ltoes -25.1455
576
root 12.027 17.9212 7.26553 -150.939 -1.37667 177.681
lowerback -32.8192 -3.35902 -8.00412
upperback -4.61704 -3.09239 -0.385936
thorax 11.956 -2.39766 2.49356
lowerneck -4.90836 -2.54185 -0.524162
upperneck 3.06333 -3.47401 3.68028
head 1.87956 -1.6305 1.14121
rclavicle -2.51711e-014 1.03368e-014
rhumerus -43.091 -14.7147 -76.7934
rradius 26.161
rwrist 1.0588
rhand -8.70197 -48.0949
rfingers 7.12502
rthumb 17.2333 -77.3508
lclavicle -2.51711e-014 1.03368e-014
lhumerus -28.2068 0.0254454 83.9179
lradius 19.9328
lwrist -6.07159
lhand -23.3593 -12.1058
lfingers 7.12502
lthumb 3.09611 17.8514
rfemur -23.7233 5.15954 20.5959
rtibia 11.4972
rfoot -24.5675 -10.5863
rtoes -28.9639
lfemur -21.6596 -3.30964 -23.8766
ltibia 3.90344
lfoot -5.84162 -9.69533
ltoes -25.1594
577
root 12.0285 17.9215 7.27062 -150.807 -1.56903 177.695
lowerback -32.9035 -3.4654 -8.09944
upperback -4.5745 -3.18631 -0.308076
thorax 12.0552 -2.44381 2.58401
lowerneck -5.02796 -2.51552 -0.598492
upperneck 2.68718 -3.42259 3.67711
head 1.77912 -1.60939 1.15395
rclavicle -3.15571e-015 3.97569e-015
rhumerus -42.6621 -15.1096 -76.4843
rradius 25.7028
rwrist 1.39329
rhand -8.58704 -47.8408
rfingers 7.12502
rthumb 17.3439 -77.0869
lclavicle -3.15571e-015 3.97569e-015
lhumerus -27.9246 0.229933 84.0309
lradius 19.6775
lwrist -6.31202
lhand -23.3976 -12.2248
lfingers 7.12502
lthumb 3.05909 17.733
rfemur -23.9159 5.13581 20.6571
rtibia 11.5873
rfoot -24.5497 -10.7947
rtoes -29.3346
lfemur -21.9243 -3.13637 -23.8384
ltibia 4.07958
lfoot -5.73064 -10.0325
ltoes -25.1974
578
root 12.0246 17.9227 7.25859 -150.955 -1.55477 177.692
lowerback -32.9156 -3.45682 -8.13756
upperback -4.48318 -3.13206 -0.33626
thorax 12.1581 -2.41619 2.59351
lowerneck -5.07886 -2.47347 -0.582766
upperneck 2.71846 -3.36695 3.59361
head 1.79462 -1.58331 1.12593
rclavicle 1.46604e-015 2.94201e-014
rhumerus -42.4295 -15.4852 -76.2427
rradius 25.347
rwrist 1.73908
rhand -8.56617 -48.3472
rfingers 7.12502
rthumb 17.364 -77.5916
lclavicle 1.46604e-015 2.94201e-014
lhumerus -27.8164 0.208564 84.1253
lradius 19.5789
lwrist -6.38634
lhand -23.2932 -12.6407
lfingers 7.12502
lthumb 3.15999 17.3156
rfemur -23.6313 5.15963 20.6264
rtibia 11.4266
rfoot -24.5535 -10.5917
rtoes -29.0224
lfemur -21.6413 -2.91013 -23.9132
ltibia 3.94016
lfoot -5.58857 -10.23
ltoes -24.8172
579
root 12.0188 17.9241 7.24122 -151.232 -1.44221 177.64
lowerback -32.8613 -3.40288 -8.18161
upperback -4.38504 -3.01233 -0.440123
thorax 12.2306 -2.35754 2.55462
lowerneck -5.21811 -2.49859 -0.348705
upperneck 3.04031 -3.4204 3.3899
head 1.91511 -1.60765 1.01729
rclavicle 5.31749e-015 3.26007e-014
rhumerus -42.2456 -16.2116 -75.8583
rradius 24.8393
rwrist 2.31689
rhand -8.69578 -48.471
rfingers 7.12502
rthumb 17.2393 -77.7263
lclavicle 5.31749e-015 3.26007e-014
lhumerus -27.7856 -0.0102065 84.2029
lradius 19.487
lwrist -6.29107
lhand -23.2144 -13.1332
lfingers 7.12502
lthumb 3.23605 16.822
rfemur -23.1898 5.21888 20.5112
rtibia 11.2587
rfoot -24.5841 -10.32
rtoes -28.5731
lfemur -21.1191 -2.74654 -24.0744
ltibia 3.68455
lfoot -5.53863 -10.2819
ltoes -24.8992
